<?xml version="1.0" standalone="no"?>
<!DOCTYPE svg PUBLIC "-//W3C//DTD SVG 20010904//EN"
 "http://www.w3.org/TR/2001/REC-SVG-20010904/DTD/svg10.dtd">
<svg version="1.0" xmlns="http://www.w3.org/2000/svg"
 width="260.000000pt" height="260.000000pt" viewBox="0 0 260.000000 260.000000"
 preserveAspectRatio="xMidYMid meet">
<metadata>
Created by potrace 1.11, written by Peter Selinger 2001-2013
</metadata>
<g transform="translate(0.000000,260.000000) scale(0.100000,-0.100000)"
fill="#000000" stroke="none">
<path d="M0 1300 l0 -1300 1300 0 1300 0 -2 857 -3 856 -865 443 -865 443
-432 1 -433 0 0 -1300z m1428 958 c7 -7 12 -42 12 -89 l0 -76 42 -7 c64 -10
170 -59 242 -110 73 -52 96 -79 96 -113 0 -33 -177 -222 -208 -223 -13 0 -52
21 -87 47 -78 57 -136 82 -197 82 -128 2 -193 -87 -115 -156 37 -32 40 -34
222 -99 298 -106 403 -197 436 -377 15 -83 2 -174 -39 -262 -62 -131 -180
-221 -349 -265 l-43 -11 0 -83 c0 -67 -3 -85 -16 -90 -30 -12 -239 -7 -252 6
-7 7 -12 43 -12 93 l0 80 -66 19 c-86 25 -214 102 -287 174 -71 70 -81 86 -67
111 12 24 206 201 219 201 5 0 40 -25 78 -55 37 -31 97 -70 133 -88 56 -28 75
-32 140 -32 107 0 150 29 166 109 6 35 3 40 -38 79 -35 33 -69 51 -163 86
-269 98 -386 183 -451 325 -55 120 -38 282 40 387 44 60 141 124 227 150 l69
21 0 77 c0 47 5 82 12 89 8 8 51 12 128 12 77 0 120 -4 128 -12z"/>
</g>
</svg>
